HIERARCHY
ROOT Hips
{
	OFFSET 0.000000 0.000000 0.000000
	CHANNELS 6 Xposition Yposition Zposition Xrotation Yrotation Zrotation
	JOINT Chest
	{
		OFFSET 0.000000 0.009282 11.569106
		CHANNELS 6 Xposition Yposition Zposition Xrotation Yrotation Zrotation
		JOINT Chest2
		{
			OFFSET 0.000000 -0.016863 9.269641
			CHANNELS 6 Xposition Yposition Zposition Xrotation Yrotation Zrotation
			JOINT Chest3
			{
				OFFSET 0.000000 0.000000 8.374491
				CHANNELS 6 Xposition Yposition Zposition Xrotation Yrotation Zrotation
				JOINT Chest4
				{
					OFFSET 0.000000 0.000000 8.374493
					CHANNELS 6 Xposition Yposition Zposition Xrotation Yrotation Zrotation
					JOINT Neck
					{
						OFFSET 0.000000 -0.000001 12.152554
						CHANNELS 6 Xposition Yposition Zposition Xrotation Yrotation Zrotation
						JOINT Head
						{
							OFFSET 0.000000 -0.040100 7.802319
							CHANNELS 6 Xposition Yposition Zposition Xrotation Yrotation Zrotation
							End Site
							{
								OFFSET 0.000000 -0.020946 14.853096
							}
						}
					}
					JOINT RightCollar
					{
						OFFSET -2.894404 0.000000 6.791374
						CHANNELS 6 Xposition Yposition Zposition Xrotation Yrotation Zrotation
						JOINT RightShoulder
						{
							OFFSET -13.574684 0.000000 0.000000
							CHANNELS 6 Xposition Yposition Zposition Xrotation Yrotation Zrotation
							JOINT RightElbow
							{
								OFFSET -23.923903 0.000000 0.000000
								CHANNELS 6 Xposition Yposition Zposition Xrotation Yrotation Zrotation
								JOINT RightWrist
								{
									OFFSET -19.846718 -0.012765 0.000000
									CHANNELS 6 Xposition Yposition Zposition Xrotation Yrotation Zrotation
									End Site
									{
										OFFSET -14.973145 0.000000 0.000000
									}
								}
							}
						}
					}
					JOINT LeftCollar
					{
						OFFSET 2.894404 0.000000 6.791374
						CHANNELS 6 Xposition Yposition Zposition Xrotation Yrotation Zrotation
						JOINT LeftShoulder
						{
							OFFSET 13.574684 0.000000 0.000000
							CHANNELS 6 Xposition Yposition Zposition Xrotation Yrotation Zrotation
							JOINT LeftElbow
							{
								OFFSET 23.923903 0.000000 0.000000
								CHANNELS 6 Xposition Yposition Zposition Xrotation Yrotation Zrotation
								JOINT LeftWrist
								{
									OFFSET 19.846718 -0.012765 0.000000
									CHANNELS 6 Xposition Yposition Zposition Xrotation Yrotation Zrotation
									End Site
									{
										OFFSET 14.973145 0.000000 0.000000
									}
								}
							}
						}
					}
				}
			}
		}
	}
	JOINT RightHip
	{
		OFFSET -9.469263 -0.004642 0.045487
		CHANNELS 6 Xposition Yposition Zposition Xrotation Yrotation Zrotation
		JOINT RightKnee
		{
			OFFSET 0.000000 -0.002666 -40.478676
			CHANNELS 6 Xposition Yposition Zposition Xrotation Yrotation Zrotation
			JOINT RightAnkle
			{
				OFFSET 0.000000 -0.049110 -35.224068
				CHANNELS 6 Xposition Yposition Zposition Xrotation Yrotation Zrotation
				JOINT RightToe
				{
					OFFSET 0.000000 -12.539530 -6.151390
					CHANNELS 6 Xposition Yposition Zposition Xrotation Yrotation Zrotation
					End Site
					{
						OFFSET 0.000000 -5.044995 -1.291870
					}
				}
			}
		}
	}
	JOINT LeftHip
	{
		OFFSET 9.469263 -0.004642 0.045487
		CHANNELS 6 Xposition Yposition Zposition Xrotation Yrotation Zrotation
		JOINT LeftKnee
		{
			OFFSET 0.000000 -0.002666 -40.478676
			CHANNELS 6 Xposition Yposition Zposition Xrotation Yrotation Zrotation
			JOINT LeftAnkle
			{
				OFFSET 0.000000 -0.049110 -35.224068
				CHANNELS 6 Xposition Yposition Zposition Xrotation Yrotation Zrotation
				JOINT LeftToe
				{
					OFFSET 0.000000 -12.539530 -6.151390
					CHANNELS 6 Xposition Yposition Zposition Xrotation Yrotation Zrotation
					End Site
					{
						OFFSET 0.000000 -5.044995 -1.291870
					}
				}
			}
		}
	}
}
MOTION
Frames: 4
Frame Time: 0.016667
-9.349662 -5.382098 83.105103 1.931769 4.085772 -110.534980 -0.000000 0.009282 11.569107 0.795572 0.860772 2.076690 0.000000 -0.016862 9.269639 0.356375 0.379732 0.879569 -0.000001 -0.000001 8.374477 0.356375 0.379733 0.879564 -0.000001 0.000001 8.374495 0.267828 0.284286 0.659896 -0.000000 -0.000001 12.152552 24.890546 -2.332966 -1.783379 -0.000001 -0.040097 7.802323 9.990244 -3.849704 -3.828777 -2.894404 0.000000 6.791368 1.650842 -5.451611 -1.228145 -13.574684 0.000000 -0.000007 17.942268 -51.119653 67.360350 -23.923899 0.000001 -0.000005 34.865220 -5.829557 42.690694 -19.846716 -0.012761 0.000013 -6.871783 35.436927 35.045243 2.894405 0.000000 6.791372 -1.733733 10.109743 -5.485458 13.574682 0.000003 -0.000005 74.277460 83.350281 -89.045326 23.923893 0.000001 -0.000001 -30.340742 48.530714 -12.053392 19.846708 -0.012765 -0.000004 -62.772212 -27.321931 -44.306184 -9.469263 -0.004641 0.045484 7.249636 -0.124684 -0.219601 0.000307 -0.002684 -40.478649 0.647514 -0.067516 -6.561812 -0.000178 -0.049123 -35.224228 -3.228750 -1.082205 3.800408 0.000002 -12.539532 -6.151386 -0.018481 0.012414 -0.004546 9.469263 -0.004641 0.045487 7.668590 0.156481 1.963071 -0.000019 -0.002667 -40.478710 -1.000784 -0.883372 0.398441 0.000087 -0.049114 -35.224163 -2.122039 0.871561 -1.841132 0.000000 -12.539532 -6.151375 0.077314 0.041057 0.005786 
-9.354801 -5.389331 83.103966 1.933636 4.095369 -110.531756 -0.000000 0.009282 11.569102 0.781016 0.858928 2.078436 0.000000 -0.016863 9.269640 0.349889 0.379916 0.880281 0.000001 0.000000 8.374490 0.349889 0.379916 0.880280 -0.000001 0.000000 8.374499 0.262963 0.284434 0.660423 -0.000000 -0.000003 12.152549 24.849661 -2.324944 -1.793266 0.000001 -0.040093 7.802332 9.914428 -3.831585 -3.846269 -2.894404 0.000000 6.791373 1.637435 -5.458075 -1.238258 -13.574684 0.000001 0.000000 18.143506 -50.885043 67.268272 -23.923893 -0.000007 0.000007 35.329700 -5.336761 42.651205 -19.846725 -0.012762 0.000020 -7.604162 34.935769 36.628720 2.894404 0.000001 6.791381 -1.740439 10.102102 -5.475832 13.574681 0.000001 -0.000005 74.367680 83.439230 -89.008778 23.923889 -0.000002 -0.000006 -30.263933 48.489828 -11.950180 19.846714 -0.012756 0.000011 -62.870669 -26.801818 -44.410057 -9.469262 -0.004642 0.045484 7.249797 -0.121922 -0.152393 0.000308 -0.002684 -40.478630 0.667337 -0.058979 -6.600244 -0.000177 -0.049125 -35.224224 -3.232555 -1.084350 3.769410 -0.000000 -12.539531 -6.151388 -0.021493 0.004016 -0.001797 9.469262 -0.004641 0.045483 7.689152 0.173437 1.869014 -0.000022 -0.002667 -40.478722 -1.016051 -0.903958 0.461067 0.000085 -0.049117 -35.224171 -2.117627 0.861311 -1.830358 -0.000001 -12.539529 -6.151377 0.074368 0.042537 0.005393 
-9.357139 -5.396044 83.102577 1.934560 4.103282 -110.532746 -0.000001 0.009283 11.569114 0.759018 0.855632 2.079078 0.000000 -0.016863 9.269641 0.340631 0.379058 0.879512 -0.000001 0.000000 8.374485 0.340631 0.379059 0.879514 -0.000000 -0.000000 8.374493 0.256018 0.283804 0.659840 0.000000 -0.000003 12.152564 24.819350 -2.317711 -1.803322 -0.000001 -0.040099 7.802313 9.858242 -3.815132 -3.863905 -2.894404 0.000000 6.791382 1.634679 -5.476534 -1.241737 -13.574684 0.000001 -0.000012 18.254816 -50.757817 67.116540 -23.923912 -0.000003 0.000002 35.955475 -4.759431 42.599914 -19.846714 -0.012766 0.000010 -8.185107 34.488975 38.230440 2.894404 -0.000000 6.791380 -1.745039 10.093598 -5.445939 13.574686 -0.000000 0.000007 74.411195 83.483367 -88.956753 23.923908 0.000001 0.000002 -30.189860 48.414782 -11.835359 19.846720 -0.012765 0.000001 -62.998523 -26.212062 -44.563228 -9.469263 -0.004641 0.045498 7.245871 -0.117292 -0.081789 0.000310 -0.002684 -40.478653 0.686214 -0.057237 -6.626280 -0.000174 -0.049124 -35.224224 -3.234853 -1.078506 3.717931 -0.000001 -12.539530 -6.151382 -0.023662 -0.004096 0.001412 9.469262 -0.004641 0.045491 7.706013 0.190204 1.801249 -0.000023 -0.002667 -40.478722 -1.030587 -0.924203 0.500558 0.000085 -0.049118 -35.224159 -2.113488 0.851412 -1.816687 -0.000001 -12.539532 -6.151366 0.072869 0.044415 0.003513 
-9.360126 -5.402315 83.100929 1.936036 4.113636 -110.525233 0.000001 0.009280 11.569101 0.729433 0.845533 2.068923 0.000001 -0.016863 9.269639 0.327304 0.374604 0.874222 -0.000000 0.000002 8.374472 0.327304 0.374604 0.874217 0.000002 0.000001 8.374497 0.246013 0.280487 0.655860 0.000000 -0.000002 12.152558 24.803518 -2.301627 -1.813321 0.000000 -0.040103 7.802304 9.829270 -3.782845 -3.878818 -2.894404 0.000002 6.791370 1.646385 -5.490263 -1.250020 -13.574684 0.000000 0.000005 18.302363 -50.684553 66.955006 -23.923901 -0.000008 0.000003 36.679745 -4.092161 42.538818 -19.846710 -0.012758 0.000004 -8.548646 33.996901 39.436296 2.894403 0.000001 6.791379 -1.741663 10.097532 -5.409573 13.574682 -0.000000 -0.000009 74.449123 83.534197 -88.925696 23.923908 0.000006 -0.000003 -30.156593 48.328684 -11.695212 19.846718 -0.012760 0.000006 -63.040781 -25.691910 -44.654233 -9.469263 -0.004644 0.045483 7.251756 -0.112461 -0.044601 0.000311 -0.002684 -40.478653 0.692684 -0.059607 -6.646885 -0.000171 -0.049122 -35.224209 -3.233285 -1.071545 3.666628 -0.000001 -12.539530 -6.151383 -0.024648 -0.009482 0.003707 9.469263 -0.004644 0.045482 7.721290 0.206657 1.764064 -0.000023 -0.002666 -40.478733 -1.038333 -0.943264 0.508494 0.000084 -0.049115 -35.224163 -2.113342 0.842709 -1.797397 -0.000002 -12.539533 -6.151377 0.072602 0.044461 0.002050 
